<svg width="197" height="207" viewBox="0 0 197 207" fill="none" xmlns="http://www.w3.org/2000/svg">
<path fill-rule="evenodd" clip-rule="evenodd" d="M140.924 176.19C142.931 170.949 145.811 166.024 148.534 161.136C152.907 153.285 157.93 146.815 165.86 142.524C178.757 135.546 192.677 133.224 207.036 134.018C214.52 134.431 222.167 135.571 229.197 138.238C232.326 139.426 235.371 140.822 238.382 142.283C240.242 143.186 242.07 144.15 243.889 145.131C244.985 145.723 246.947 146.326 247.644 147.421C248.482 148.737 247.611 150.615 246.02 150.659C244.666 150.697 243.038 149.343 241.853 148.733C239.127 147.33 236.337 146.074 233.514 144.883C229.107 143.023 224.684 141.605 219.992 140.729C210.483 138.955 200.432 138.843 190.829 140.098C194.231 148.184 193.14 156.262 188.811 163.801C182.649 174.534 174.936 182.64 163.806 188.017C156.578 191.51 149.151 191.651 141.494 189.933C140.046 189.608 138.071 188.95 137.62 187.289C137.185 185.689 138.351 183.552 138.84 182.047C139.481 180.074 140.182 178.127 140.924 176.19Z" fill="#DDE3E9"/>
<path fill-rule="evenodd" clip-rule="evenodd" d="M211.394 76.0514C198.431 72.3639 185.5 68.7971 172.162 66.6637C164.302 65.4069 156.38 64.7121 148.477 63.7806C149.437 63.9712 150.394 64.1855 151.344 64.4223C148.944 64.2468 146.304 64.8903 143.85 64.8621C141.113 64.8309 138.366 64.5732 135.649 64.2828C130.347 63.7167 125.07 63.0663 119.746 62.7025C113.813 62.2977 107.851 62.2014 101.908 61.9471C96.8649 61.7313 91.6482 61.3193 86.5943 61.6818C83.8398 61.8792 80.9683 61.8854 78.179 62.0429C77.2456 62.0958 67.236 61.698 67.2464 61.6733C67.4755 61.1323 72.1682 60.7346 72.8737 60.6381C74.9345 60.3558 76.9995 60.2495 79.0717 60.1357C77.1896 58.905 75.4401 57.48 73.9527 55.7751C73.4935 55.2489 70.0647 51.468 70.336 50.8273C70.4715 50.5073 77.2672 56.8891 77.8155 57.5636C78.2608 58.1114 78.7476 58.9897 79.2744 59.4476C80.125 60.1873 79.9482 59.9176 80.9497 60.0319C82.7851 60.2416 84.8355 59.8497 86.6867 59.8417C87.6792 59.8273 90.9622 60.1479 92.6354 59.8126C98.0581 59.4235 104.178 60.1114 109.719 60.4163C107.517 59.0377 105.515 57.4224 103.673 55.5813C103.236 55.1444 99.0572 51.3712 99.2634 50.8844C99.4954 50.3365 106.446 55.7699 107.002 56.3431C108.035 57.4077 108.9 58.7579 109.994 59.7429C111.194 60.8239 112.819 60.5134 114.485 60.5843C120.614 60.8451 126.692 61.3737 132.778 62.0833C132.653 51.1105 121.535 44.208 113.017 39.8709C106.878 36.7453 100.024 34.9865 93.2385 33.9148C84.183 32.4843 74.8173 32.5752 65.6566 33.0021C54.9826 33.4994 44.5776 36.0021 34.6384 40.1288C29.44 42.287 24.5079 45.1655 19.7459 48.1944C17.4195 49.6739 15.3137 51.3148 13.4781 53.4163C12.6511 54.364 11.9113 55.3832 11.2273 56.4407C10.7077 57.2442 9.15465 58.6739 9.05462 59.4809C8.18786 66.0493 9.0151 71.6159 12.5804 77.1759C15.9551 82.4392 20.7789 86.8676 25.8734 90.3561C31.5465 94.2404 37.6709 97.2013 44.3641 98.7874C49.4707 99.9977 54.7342 100.577 59.9527 101.134C78.5137 103.118 99.8575 101.832 115.55 89.9064C120.629 86.0463 124.733 81.1108 128.098 75.6838C128.891 74.405 129.673 73.1231 130.338 71.7703C130.786 70.8584 131.468 67.5234 132.156 67.0184C133.099 66.326 136.45 67.1234 137.754 67.2016C147.666 67.7971 157.537 68.7585 167.379 70.0074C177.851 71.3363 188.182 73.2487 198.47 75.5574C202.845 76.5395 207.206 77.538 211.55 78.6566C212.561 78.9165 215.485 80.3366 216.717 79.7644C217.497 79.4025 217.631 78.4794 217.129 77.8536C216.258 76.7653 212.721 76.429 211.394 76.0514Z" fill="#C1DEE2"/>
<path fill-rule="evenodd" clip-rule="evenodd" d="M157.854 103.71C157.36 103.539 149.293 104.366 149.32 103.555C149.332 103.207 152.455 102.96 152.885 102.944C154.583 102.882 156.249 103.208 157.854 103.71ZM165.339 89.8509C165.357 89.9007 167.041 90.8552 167.528 91.166C168.566 91.8263 169.576 92.527 170.561 93.2449C168.944 91.9063 167.381 90.7013 165.339 89.8509ZM112.728 135.909C112.062 136.645 110.478 136.172 111.391 135.303C112.13 134.601 112.06 134.577 112.046 133.661C112.034 132.917 111.83 132.119 111.764 131.37C111.623 129.78 111.594 128.203 111.759 126.615C112.111 123.21 113.036 119.919 114.406 116.803C116.796 111.367 119.841 105.902 123.967 101.658C130.527 94.9089 139.374 89.6181 148.118 86.6232C153.533 84.7681 158.936 83.8591 164.433 85.9209C167.181 86.951 169.775 88.5184 171.791 90.73C172.318 91.3083 172.716 92.0597 173.27 92.603C174.124 93.4385 173.848 93.2442 175.122 92.7671C176.513 92.2459 177.905 91.73 179.3 91.2178C182.951 89.8773 186.642 88.561 190.414 87.6281C191.656 87.3207 192.914 87.0953 194.183 86.9447C195.142 86.8303 198.802 86.0976 199.752 86.8844C201.334 88.1932 198.822 88.636 197.968 88.6454C197.219 88.6535 196.468 88.6918 195.722 88.7585C193.844 88.9265 191.993 89.2861 190.17 89.7743C188.201 90.3017 186.263 90.9652 184.331 91.6243C182.53 92.2394 180.74 92.8865 178.955 93.5478C177.963 93.915 176.973 94.2871 175.983 94.6592C175.645 94.7862 174.946 94.8327 175.219 95.2112C173.108 95.9409 171.084 97.18 169.09 98.1959C166.648 99.4405 164.211 100.712 161.876 102.16C160.192 103.204 158.54 104.307 156.967 105.524C156.048 106.234 155.181 106.998 154.347 107.813C153.889 108.261 151.938 109.776 151.916 110.415C151.926 110.14 154.377 108.985 154.668 108.802C155.833 108.07 156.946 107.27 158.056 106.452C160.115 104.935 162.243 103.534 164.462 102.278C164.678 102.672 163.569 104.235 163.349 104.705C162.857 105.759 162.43 106.846 162.092 107.963C161.495 109.93 160.809 112.336 160.743 114.297C160.763 113.719 161.75 112.412 162.026 111.819C162.469 110.87 162.876 109.895 163.222 108.904C163.542 107.989 163.793 107.054 164.028 106.113C164.262 105.171 164.328 103.457 164.862 102.611C164.894 102.56 165.381 102.632 165.519 102.432C165.658 102.231 165.634 101.641 165.672 101.594C166.226 100.906 167.78 100.467 168.55 100.069C170.547 99.0351 172.559 98.0307 174.565 97.0156C175.186 96.701 175.619 96.2683 176.103 96.5822C176.62 96.9173 176.897 98.4222 177.069 99.0125C177.71 101.205 177.872 103.408 177.421 105.653C176.576 109.859 174.623 113.465 171.922 116.682C161.577 129.005 148.747 138.955 132.796 141.559C126.192 142.637 115.914 143.684 112.728 135.909Z" fill="#89C5CC"/>
</svg>
