<svg width="461" height="446" viewBox="0 0 461 446" fill="none" xmlns="http://www.w3.org/2000/svg">
<g opacity="0.35">
<path fill-rule="evenodd" clip-rule="evenodd" d="M426.224 305.314C431.941 348.076 293.301 375.968 173.971 356.503C54.6399 337.038 -0.103287 261.024 56.8393 220.521C113.782 180.017 420.508 262.552 426.224 305.314Z" fill="#F4CE14"/>
</g>
<path fill-rule="evenodd" clip-rule="evenodd" d="M254.72 127.124C256.877 125.475 260.224 126.526 262.395 127.499C263.232 127.874 265.371 129.075 266.956 130.426C266.747 129.49 266.56 128.545 266.397 127.592C265.726 123.676 265.264 119.686 265.041 115.719C264.984 114.684 265.059 113.528 265.135 112.356L265.135 112.356L265.135 112.356C265.161 111.959 265.187 111.561 265.208 111.165C265.121 111.071 265.063 110.942 265.038 110.767C265.029 110.839 265.024 110.898 265.02 110.942C265.013 111.014 265.01 111.051 264.998 111.053C264.987 111.056 264.967 111.026 264.927 110.964C264.911 110.941 264.893 110.912 264.87 110.879C263.266 108.478 261.918 105.773 261.733 102.798C261.576 100.276 263.648 95.5034 266.584 98.8073C267.898 100.283 267.557 110.645 265.584 111.28C266.111 114.714 266.773 118.142 267.604 121.527C267.728 121.505 267.855 121.503 267.981 121.52C267.969 120.678 267.967 119.76 268.002 119.445C268.298 116.725 270.568 111.203 274.184 112.275C276.962 113.099 275.259 116.491 274.313 117.975C272.792 120.365 271.07 121.4 268.89 122.643C268.846 123.156 268.515 123.455 268.124 123.552C269.584 129.018 271.502 134.348 274.012 139.384L274.079 139.064L274.079 139.064C274.398 137.535 274.769 135.753 275.004 135.379C276.234 133.42 278.958 131.028 281.469 132.187C286.743 134.624 281.018 141.63 276.528 142.392C276.342 142.65 276.144 142.858 275.934 142.977C276.806 144.497 277.739 145.985 278.736 147.435C280.233 149.616 281.841 151.79 283.527 153.951C283.579 152.261 284.246 148.493 284.435 148.088C285.586 145.63 288.905 143.1 291.597 144.846C294.625 146.816 291.88 150.537 290.153 152.221C289.445 152.911 285.943 155.441 284.708 155.453C288.782 160.549 293.277 165.559 297.848 170.387C297.47 168.226 296.975 162.273 297.03 161.612C297.314 158.202 299.554 152.748 303.966 154.077C308.247 155.365 306.353 161.031 304.888 163.732C304 165.366 302.773 167.027 301.293 168.167C301.026 168.373 300.678 168.541 300.33 168.708C299.911 168.91 299.492 169.111 299.218 169.378C298.975 169.616 298.9 169.889 298.826 170.159C298.747 170.445 298.67 170.728 298.394 170.965C300.865 173.563 303.352 176.107 305.804 178.58C306.961 179.747 308.139 180.892 309.329 182.022C309.979 181.752 310.907 182.107 310.859 183.03C310.852 183.163 310.821 183.279 310.779 183.385C311.681 184.224 312.588 185.058 313.502 185.882C313.481 185.642 313.488 185.303 313.53 184.835C312.871 185.773 312.899 184.408 312.92 183.367C312.927 182.999 312.934 182.672 312.909 182.502C312.812 181.833 312.687 181.171 312.562 180.51C312.295 179.098 312.029 177.69 312.042 176.233C312.071 173.139 314.029 167.954 318.149 169.796C321.937 171.487 320.558 176.071 319.129 178.946C318.225 180.765 316.987 182.389 315.693 183.944C315.462 184.221 315.206 184.597 314.953 184.969L314.953 184.969C314.577 185.521 314.206 186.066 313.932 186.268C317.449 189.423 321.048 192.486 324.649 195.548L324.649 195.549C326.261 196.92 327.874 198.292 329.479 199.673C329.549 199.37 329.607 199.069 329.657 198.789C329.556 198.902 329.42 198.955 329.245 198.945C329.198 198.712 329.13 198.404 329.049 198.034L329.049 198.033C328.058 193.509 325.038 179.729 333.214 182.4C339.204 184.362 334.976 196.361 330.508 200.558C333.219 202.902 335.905 205.275 338.528 207.719C340.425 209.488 342.267 211.317 344.039 213.207C343.122 210.76 342.258 207.591 342.825 205.07C343.651 201.4 347.518 197.936 351.294 200.024C356.002 202.638 352.38 206.208 348.984 209.556C347.25 211.266 345.575 212.917 345.097 214.354C350.729 220.554 355.537 227.443 358.749 235.289C362.243 243.822 365.487 255.287 363.693 264.834C364.024 260.636 362.608 255.366 361.613 251.664L361.613 251.663C361.477 251.159 361.35 250.685 361.235 250.246C359.741 244.505 357.617 238.919 354.819 233.691C350.336 225.318 344.415 218.21 337.58 211.756C336.023 212.299 334.333 213.304 332.933 214.137C332.074 214.648 331.324 215.093 330.782 215.328C328.166 216.457 323.145 218.077 321.479 214.518C319.84 211.019 324.022 209.062 326.614 208.278C329.118 207.521 331.376 207.613 333.712 208.233C330.094 205.021 326.388 201.912 322.682 198.802L322.682 198.802C322 198.23 321.319 197.658 320.638 197.086C319.696 197.859 318.655 198.977 317.551 200.164L317.551 200.164C314.045 203.93 309.891 208.393 306.181 204.747C300.583 199.245 311.29 193.652 315.852 194.089C316.412 194.142 316.953 194.261 317.482 194.421C312.83 190.468 308.25 186.432 303.919 182.114C303.141 182.255 301.904 183.401 300.417 184.776C297.077 187.868 292.478 192.124 289.014 188.773C286.513 186.354 287.369 182.586 289.786 180.432C292.213 178.268 295.731 178.272 298.722 179.001C300.014 179.314 301.207 179.912 302.319 180.641C302.366 180.644 302.411 180.647 302.457 180.649C298.194 176.354 293.906 171.963 289.776 167.422C289.704 167.445 289.63 167.469 289.556 167.493C289.306 167.799 288.888 167.911 288.505 167.844C288.294 167.916 288.078 167.991 287.858 168.067C284.587 169.197 280.382 170.65 277.121 170.024C274.721 169.562 272.544 167.609 274.575 165.204C276.227 163.248 280.708 163.529 282.893 163.992C283.959 164.219 285.12 164.874 286.285 165.532L286.285 165.532C286.774 165.809 287.264 166.086 287.748 166.331C287.874 166.077 288.093 165.914 288.343 165.836C284.265 161.273 280.373 156.551 276.843 151.625C275.775 151.791 274.59 152.261 273.368 152.745C270.427 153.912 267.271 155.163 265.006 152.468C261.662 148.487 267.951 146.164 270.94 146.542C271.95 146.67 272.945 146.956 273.906 147.334C271.338 143.279 269.376 138.943 267.998 134.39C267.985 134.397 267.972 134.404 267.96 134.411C267.94 134.422 267.921 134.433 267.897 134.443C267.918 134.432 267.936 134.42 267.954 134.408C267.964 134.402 267.973 134.396 267.983 134.39C267.987 134.387 267.991 134.385 267.996 134.383C267.858 133.927 267.726 133.469 267.6 133.01C267.367 132.88 267.149 132.784 267.044 132.745C268.402 133.683 262.672 134.141 261.599 134.227C259.226 134.417 256.048 134.488 254.307 132.542C252.845 130.907 252.931 128.492 254.72 127.124ZM363.948 264.847C363.847 266.231 363.597 267.497 363.131 268.542C363.481 267.353 363.749 266.117 363.948 264.847Z" fill="#F2F2F2"/>
<path opacity="0.2" fill-rule="evenodd" clip-rule="evenodd" d="M146.996 38.7741C145.421 37.5825 142.977 38.3437 141.392 39.0483C140.78 39.3201 139.219 40.1889 138.06 41.1665C138.214 40.4892 138.35 39.806 138.47 39.1173C138.961 36.2852 139.3 33.3996 139.464 30.5308C139.507 29.7826 139.452 28.9466 139.397 28.0997L139.397 28.0996C139.378 27.8127 139.359 27.5245 139.344 27.2381C139.407 27.1704 139.45 27.0769 139.468 26.9503C139.475 27.0028 139.479 27.0449 139.482 27.0771C139.486 27.1292 139.489 27.1554 139.497 27.1575C139.506 27.1596 139.52 27.1375 139.549 27.0931C139.561 27.0758 139.574 27.0553 139.591 27.0314C140.763 25.2946 141.748 23.3378 141.885 21.1871C142 19.3631 140.489 15.9128 138.344 18.3029C137.384 19.3704 137.629 26.8634 139.07 27.3219C138.684 29.8051 138.198 32.2841 137.591 34.7317C137.5 34.7158 137.408 34.7145 137.316 34.7269C137.325 34.1185 137.326 33.4545 137.301 33.2263C137.086 31.2597 135.43 27.2678 132.79 28.0444C130.762 28.6412 132.004 31.0929 132.693 32.166C133.804 33.8936 135.06 34.6412 136.651 35.5391C136.683 35.9105 136.925 36.1263 137.21 36.1963C136.142 40.1491 134.74 44.0045 132.905 47.6464L132.857 47.415L132.857 47.4148C132.625 46.3098 132.354 45.0215 132.182 44.751C131.285 43.335 129.297 41.606 127.464 42.445C123.612 44.2096 127.789 49.2734 131.067 49.8228C131.203 50.0094 131.348 50.1594 131.501 50.2454C130.863 51.3448 130.182 52.4213 129.453 53.4702C128.36 55.0478 127.185 56.6204 125.953 58.1838C125.916 56.9614 125.43 54.237 125.292 53.9444C124.452 52.167 122.03 50.339 120.064 51.603C117.852 53.028 119.855 55.7177 121.116 56.9348C121.632 57.4338 124.188 59.2621 125.09 59.2699C122.114 62.9567 118.829 66.5806 115.49 70.0736C115.767 68.5105 116.131 64.2061 116.091 63.7284C115.885 61.2627 114.252 57.3196 111.029 58.2823C107.903 59.2147 109.284 63.3111 110.353 65.2637C111 66.4454 111.896 67.646 112.976 68.4699C113.171 68.6183 113.425 68.7394 113.679 68.8604C113.985 69.0062 114.29 69.1517 114.49 69.3444C114.668 69.5162 114.723 69.7135 114.777 69.9092C114.834 70.1158 114.89 70.3206 115.091 70.4915C113.287 72.371 111.469 74.2114 109.678 76.0006C108.833 76.8452 107.973 77.6733 107.104 78.4912C106.629 78.2961 105.951 78.5533 105.986 79.2201C105.991 79.317 106.013 79.4005 106.044 79.4771C105.385 80.0843 104.723 80.6872 104.055 81.2836C104.07 81.1099 104.066 80.8651 104.035 80.527C104.516 81.2043 104.496 80.2174 104.481 79.465C104.476 79.1992 104.471 78.9626 104.489 78.8391C104.56 78.3556 104.652 77.8769 104.743 77.3988C104.939 76.3776 105.133 75.3596 105.124 74.3058C105.104 72.069 103.677 68.3201 100.668 69.6537C97.902 70.8776 98.9066 74.1923 99.9489 76.2702C100.609 77.5851 101.512 78.7591 102.456 79.8829C102.624 80.0835 102.811 80.3552 102.996 80.6241C103.271 81.0234 103.541 81.4168 103.741 81.5632C101.172 83.8459 98.5426 86.0617 95.913 88.2776L95.9125 88.2779C94.7347 89.2705 93.5568 90.2631 92.3842 91.2617C92.3333 91.0427 92.2912 90.8255 92.255 90.6224C92.3283 90.7044 92.428 90.7427 92.556 90.7351C92.5902 90.5671 92.6396 90.344 92.6991 90.076C93.4246 86.8042 95.6344 76.839 89.6639 78.7732C85.2895 80.1944 88.3722 88.869 91.6326 91.9023C89.6522 93.5978 87.6906 95.315 85.7748 97.0834C84.3885 98.363 83.0431 99.6864 81.7489 101.054C82.4192 99.2837 83.051 96.9924 82.638 95.1692C82.0367 92.5162 79.214 90.0123 76.4561 91.5235C73.018 93.4156 75.661 95.9959 78.1394 98.4156C79.4049 99.6511 80.6275 100.845 80.9757 101.883C76.8616 106.369 73.3485 111.352 70.9999 117.026C68.4456 123.198 66.0732 131.49 67.3794 138.392C67.1391 135.357 68.1753 131.545 68.9031 128.868C69.0022 128.504 69.0955 128.16 69.1792 127.843C70.2727 123.691 71.8252 119.651 73.8704 115.87C77.1463 109.813 81.4719 104.671 86.4653 100.002C87.6016 100.394 88.8355 101.12 89.8575 101.722C90.4844 102.091 91.0315 102.413 91.4273 102.582C93.3366 103.398 97.0025 104.567 98.2205 101.993C99.4179 99.4627 96.3653 98.0493 94.4734 97.4832C92.645 96.9368 90.9964 97.0038 89.2903 97.4532C91.9332 95.1295 94.6406 92.8794 97.3474 90.6297L97.355 90.6234C97.8504 90.2117 98.3458 89.7999 98.8408 89.3878C99.5283 89.9466 100.288 90.7544 101.094 91.6123C103.652 94.3347 106.683 97.56 109.393 94.9223C113.483 90.9416 105.667 86.9017 102.336 87.2192C101.927 87.2578 101.532 87.3435 101.146 87.46C104.544 84.5993 107.889 81.6798 111.054 78.5552C111.621 78.6576 112.524 79.4852 113.609 80.4794L113.609 80.4794C116.047 82.7138 119.403 85.7898 121.934 83.3652C123.761 81.615 123.137 78.8908 121.373 77.3339C119.602 75.7703 117.033 75.7742 114.849 76.3023C113.905 76.5294 113.034 76.9624 112.222 77.4901L112.122 77.4957C115.235 74.3884 118.368 71.2116 121.385 67.9264L121.445 67.9455L121.546 67.9778C121.728 68.1992 122.033 68.2801 122.313 68.231C122.467 68.2833 122.624 68.3371 122.785 68.392C125.173 69.2083 128.243 70.2576 130.624 69.8032C132.376 69.4688 133.967 68.0554 132.485 66.3171C131.279 64.9034 128.008 65.1082 126.412 65.444C125.634 65.6081 124.786 66.0827 123.935 66.5589L123.935 66.559C123.578 66.759 123.22 66.9594 122.866 67.1372C122.774 66.9536 122.614 66.8358 122.432 66.7793C125.412 63.478 128.255 60.0627 130.834 56.4992C131.614 56.6186 132.479 56.958 133.371 57.308C135.518 58.1502 137.822 59.0541 139.477 57.104C141.92 54.2245 137.329 52.5469 135.146 52.8214C134.409 52.914 133.682 53.1215 132.98 53.3955C134.857 50.4617 136.291 47.3262 137.298 44.0333C137.308 44.0382 137.317 44.0432 137.326 44.0482C137.34 44.0561 137.355 44.064 137.372 44.0715C137.357 44.0634 137.344 44.0549 137.33 44.0464C137.32 44.0402 137.311 44.0339 137.3 44.0279C137.401 43.6984 137.497 43.3675 137.589 43.0354C137.76 42.9412 137.919 42.8718 137.995 42.8433C137.003 43.5219 141.187 43.8515 141.971 43.9133C143.703 44.0495 146.024 44.0996 147.295 42.6916C148.363 41.509 148.302 39.7626 146.996 38.7741ZM67.12 138.12C67.1965 139.042 67.4238 139.883 67.8714 140.572C67.5429 139.784 67.2964 138.964 67.12 138.12Z" fill="#C1DEE2"/>
<g opacity="0.7">
<path fill-rule="evenodd" clip-rule="evenodd" d="M316.811 201.396C325.304 200.956 335.807 205.913 336.713 215.145C337.371 221.852 337.167 228.541 338.186 235.238C339.001 240.591 340.723 245.73 343.073 250.606C345.332 255.294 350.018 259.285 351.237 264.294C352.014 267.486 351.579 271.976 350.508 275.098C349.205 278.893 349.897 278.593 352.493 281.778C357.58 288.02 362.161 294.42 365.4 301.875C370.066 312.612 373.125 325.162 371.393 336.915C371.173 338.408 370.912 343.764 368.857 344.138C366.561 344.557 367.635 341.494 367.757 340.504C368.538 334.191 369.232 328.672 368.29 322.26C364.655 297.519 346.906 281.219 335.35 260.221C334.714 259.138 333.373 256.559 332.441 254.858C330.968 252.173 329.488 247.062 327.495 245.071C323.742 241.319 327.193 248.862 327.924 250.301C328.849 252.123 329.866 254.058 330.814 255.654C335.15 263.052 339.989 271.127 344.467 278.752C325.1 283.165 311.46 259.881 306.263 244.574C301.981 231.962 296.857 202.475 316.811 201.396Z" fill="#69A1AC"/>
<path fill-rule="evenodd" clip-rule="evenodd" d="M430.641 177.976C416.444 179.102 407.329 188.471 403.086 201.574C400.799 208.636 400.537 215.89 399.267 223.147C397.355 234.065 393.242 242.338 385.204 250.117C382.714 252.526 380.879 254.999 379.575 257.645C376.986 260.287 374.732 263.277 373.076 266.933C370.961 271.601 370.362 277.202 372.805 281.856C373.461 283.107 375.099 285.619 376.797 286.76C370.441 300.296 366.946 315.121 367.34 329.928C367.578 338.866 368.014 347.807 368.524 356.734C368.661 359.131 369.441 363.089 370.614 359.069C371.687 355.392 370.341 349.62 370.216 345.779C369.611 327.066 369.093 310.052 376.796 292.569C377.604 290.737 378.46 288.919 379.352 287.116C379.404 287.085 379.453 287.049 379.502 287.013C379.536 287.039 379.567 287.068 379.601 287.093C379.658 286.992 379.736 286.871 379.827 286.736C380.083 286.472 380.306 286.138 380.519 285.766C381.202 284.819 381.975 283.707 381.979 283.098C381.979 283.093 381.977 283.085 381.977 283.081C386.745 275.297 392.207 267.941 397.786 260.73C397.744 260.782 403.837 252.486 402.895 257.074C402.441 259.285 397.959 263.496 396.149 265.838C392.145 271.048 387.443 277.65 383.535 284.033C383.009 284.336 382.266 285.819 381.729 286.924C381.433 287.484 381.156 288.049 380.884 288.54C394.729 293.115 405.5 283.9 412.844 273.183C412.853 273.17 412.86 273.157 412.869 273.145C415.104 270.183 417.393 267.243 420.253 264.902C425.025 260.996 430.135 260.306 435.761 258.384C451.104 253.142 457.627 233.258 459.699 218.503C462.037 201.858 450.603 176.335 430.641 177.976Z" fill="#89C5CC"/>
<path fill-rule="evenodd" clip-rule="evenodd" d="M402.596 131.363C388.025 146.529 380.985 167.564 375.411 187.338C369.185 209.425 365.073 231.852 364.915 254.816C364.811 269.903 364.401 285.084 365.281 300.154C365.594 305.505 366.127 310.867 366.976 316.161C367.045 316.596 368.943 328.418 370.759 325.663C371.792 324.096 368.814 313.4 368.589 311.618C367.323 301.584 367.029 291.475 367.09 281.368C367.192 264.727 366.701 248.172 368.388 231.592C368.639 229.116 368.838 226.516 369.426 224.095C370.051 221.52 369.256 222.644 371.289 221.625C373.265 220.634 375.707 220.775 377.757 219.532C385.889 214.601 390.049 201.935 393.287 193.624C396.99 184.12 399.241 173.985 401.039 163.984C402.358 156.635 403.302 149.331 403.836 141.888C404.005 139.543 404.015 137.089 404.476 134.783C404.6 134.161 405.223 133.06 405.2 132.509C405.152 131.343 404.449 130.657 404.391 129.677C403.781 130.226 403.182 130.788 402.596 131.363Z" fill="#89C5CC"/>
<path fill-rule="evenodd" clip-rule="evenodd" d="M323.142 333.42C323.142 358.501 343.474 378.832 368.554 378.832C393.635 378.832 413.966 358.501 413.966 333.42" fill="#89C5CC"/>
<path fill-rule="evenodd" clip-rule="evenodd" d="M399.675 293.66C410.915 292.831 423.466 301.899 428.887 311.335C433.258 318.942 432.521 328.932 429.822 337.015C428.014 342.426 424.069 350.141 417.49 350.216C409.259 350.31 408.862 340.137 408.703 334.189C408.491 326.282 407.492 319.394 401.262 314.005C400.492 313.34 399.685 312.717 398.878 312.094C398.162 311.542 397.445 310.989 396.756 310.407C396.645 310.314 396.534 310.22 396.423 310.127C394.22 308.275 391.906 306.331 391.625 303.278C391.216 298.855 393.713 298.059 397.525 298.881C397.648 298.907 397.982 299.034 398.437 299.206C400.384 299.944 404.538 301.519 403.752 299.636C403.456 298.927 402.375 298.365 401.011 297.944C397.481 297.56 393.272 297.115 392.061 297.381C379 300.246 373.915 318.338 372.564 329.833C372.419 331.074 372.301 332.318 372.198 333.565H369.798C369.965 330.554 370.185 327.549 370.688 324.572C372.613 313.186 378.632 296.463 391.833 294.615C392.32 294.547 394.111 294.535 396.281 294.662C397.31 294.088 398.462 293.74 399.675 293.66Z" fill="#69A1AC"/>
</g>
<g opacity="0.5">
<path fill-rule="evenodd" clip-rule="evenodd" d="M124.555 118.457C127.169 114.73 132.02 105.263 135.699 103.931C138.069 103.073 137.378 111.948 137.408 113.64C137.522 120.186 136.884 126.691 136.097 133.183C134.679 144.891 130.043 155.317 123.683 165.282C120.411 170.409 116.572 175.599 111.256 178.798C108.809 180.271 105.865 180.518 103.448 181.787C100.633 183.265 102.166 182.07 100.898 185.003C99.1364 189.075 98.573 194.328 97.758 198.673C94.0159 218.618 84.9564 324.055 86.527 344.343C86.6664 346.141 84.159 346.571 84.0338 344.376C83.3685 332.736 89.1256 252.128 92.0302 225.767C94.9348 199.406 97.8741 176.118 100.821 166.998C104.397 155.933 110.854 142.627 116.229 132.309C118.726 127.515 121.448 122.887 124.555 118.457Z" fill="#69A1AC"/>
<path fill-rule="evenodd" clip-rule="evenodd" d="M143.958 247.746C150.761 242.752 158.124 252.177 151.968 257.172C148.565 259.933 145.008 258.951 143.005 256.65C141.705 258.235 140.488 259.892 139.319 261.292C135.756 265.557 132.389 269.924 129.171 274.392C122.486 283.676 116.758 293.483 110.768 303.112C104.857 312.614 98.9927 322.166 93.6349 331.909C89.0961 340.164 83.0464 349.876 81.4925 358.926C83.8502 339.732 92.7968 321.284 103.451 304.363C114.018 287.582 126.145 269.255 142.507 256.011C140.841 253.562 140.795 250.067 143.958 247.746Z" fill="#C1DEE2"/>
<path fill-rule="evenodd" clip-rule="evenodd" d="M14.8759 200.937C18.6826 201.681 24.9026 210.292 28.0404 213.573C31.7695 217.472 35.1527 221.628 38.3418 225.982C45.2072 235.354 51.3471 245.319 56.5681 255.71C65.0798 272.65 71.8987 290.039 76.8475 308.486C79.8768 319.778 81.8382 331.481 83.0006 343.103C83.2201 345.295 85.5181 362.193 82.2068 362.649C79.2288 363.059 80.1486 349.818 80.0049 348.016C78.3809 327.696 73.5157 307.924 66.7482 288.771C65.2742 284.599 63.9048 279.489 61.5474 275.734C59.8498 273.03 61.5352 273.973 58.5519 272.949C55.9902 272.07 53.0716 272.285 50.4484 271.208C44.7497 268.871 40.1867 264.335 36.1869 259.771C28.4139 250.902 22.2543 241.308 19.0435 229.944C17.2624 223.643 15.6256 217.305 14.7173 210.81C14.4823 209.131 12.4241 200.457 14.8759 200.937Z" fill="#69A1AC"/>
<path fill-rule="evenodd" clip-rule="evenodd" d="M29.898 57.6624C44.2369 82.5296 56.02 109.846 63.6285 137.513C68.2383 154.276 71.462 171.477 74.6651 188.554C79.6245 214.996 84.3155 241.436 85.6499 268.348C86.9924 295.415 89.647 326.635 80.7838 352.705C85.211 326.236 80.996 298.063 80.2497 271.43C79.8931 258.716 78.8596 246.126 77.5039 233.487C76.1883 221.225 74.0389 209.022 72.0374 196.858C71.0624 190.933 70.0385 185.017 68.996 179.105C68.6848 177.341 68.5533 172.107 67.4343 170.902C66.3081 169.689 60.5621 169.194 58.7582 168.304C55.1256 166.512 51.7086 163.966 48.6845 161.275C42.8873 156.118 37.844 149.379 33.8634 142.736C24.6534 127.365 20.9713 108.607 21.1574 90.8056C21.1931 87.3494 26.7515 50.1314 24.5192 49.6189C24.6536 49.4615 24.7807 49.2989 24.9006 49.1299C26.5907 51.9596 28.2491 54.8085 29.898 57.6624Z" fill="#89C5CC"/>
<path fill-rule="evenodd" clip-rule="evenodd" d="M184.662 147.348C184.883 147.029 186.323 144.81 185.598 144.952C187.074 144.663 183.567 147.4 187.246 145.72C185.499 147.37 186.507 149.513 186.531 151.733C186.569 155.337 185.966 158.912 185.287 162.44C184.214 168.015 182.616 173.436 180.296 178.622C175.241 189.923 166.656 200.802 156.465 207.867C151.433 211.356 146.502 212.543 140.764 214.149C137.14 215.164 136.852 217.039 134.928 220.556C130.923 227.881 126.989 235.181 123.456 242.753C119.238 251.796 115.144 260.848 111.281 270.05C98.2696 301.046 87.6792 333.158 82.1175 366.391C81.9813 346.807 86.5118 326.637 92.2265 307.97C96.3893 294.37 101.809 281.26 107.589 268.282C108.989 265.138 111.112 261.094 111.707 257.623C112.123 255.191 110.85 252.852 110.267 250.29C107.994 240.314 108.157 229.137 110.153 219.107C112.353 208.047 118.717 202.914 129.483 201.347C133.42 200.774 138.424 200.984 142.035 199.305C145.968 197.477 147.59 191.468 149.827 187.611C155.835 177.249 162.972 167.312 171.168 158.582C173.438 156.164 175.878 153.934 178.468 151.866C180.1 150.562 183.549 148.955 184.662 147.348Z" fill="#89C5CC"/>
<path fill-rule="evenodd" clip-rule="evenodd" d="M60.8674 348.804C60.5904 346.926 62.046 345.24 63.9445 345.24H102.151C104.049 345.24 105.505 346.926 105.228 348.804L102.275 368.828C101.375 374.932 96.1367 379.454 89.9665 379.454H76.1288C69.9586 379.454 64.7206 374.932 63.8204 368.828L60.8674 348.804Z" fill="#C1DEE2"/>
</g>
<path fill-rule="evenodd" clip-rule="evenodd" d="M29.4976 355.477C29.4976 368.719 30.5426 379.454 44.5693 379.454C58.5959 379.454 59.6409 368.719 59.6409 355.477" fill="#F2F2F2"/>
<path fill-rule="evenodd" clip-rule="evenodd" d="M48.7421 347.215C48.2279 348.104 47.7695 349.01 47.3646 349.931C47.3503 348.035 47.4551 346.126 47.7413 344.19C48.2305 340.875 48.9777 337.577 49.6799 334.284C50.1845 331.918 50.1526 327.667 52.0677 325.782C52.5929 325.374 52.7193 326.174 52.7193 326.521C52.7259 326.594 52.7179 325.104 52.2081 325.364C49.1782 326.929 48.1964 331.849 47.2264 334.313C45.8111 337.909 44.6069 341.585 44.1111 345.326C43.9858 346.271 43.9176 347.216 43.9018 348.159C43.7989 347.907 43.7021 347.652 43.5951 347.401C41.8464 343.299 39.4863 339.297 36.5429 335.606C35.8184 334.698 26.7085 325.737 25.9953 327.109C26.0657 327.308 26.213 327.473 26.4377 327.605C26.4509 327.62 26.4512 327.612 26.4435 327.589C26.9786 328.454 28.4998 329.788 28.9736 330.546C30.1661 332.451 31.0928 334.474 32.0347 336.458C34.0246 340.65 35.8704 344.885 37.6599 349.128C38.0765 350.117 38.5108 351.099 38.9539 352.079C34.3866 345.492 28.2938 339.511 19.9066 336.087C22.7712 337.545 24.6493 340.287 26.5839 342.386C28.9172 344.918 31.3747 347.382 33.7123 349.912C36.4696 352.896 39.7139 356.038 42.366 359.34C44.9349 364.733 47.4313 370.132 48.9722 375.802C48.3408 373.843 48.9228 371.136 48.8147 369.08C48.7289 367.444 48.5376 365.821 48.2756 364.201C48.5995 364.932 48.8788 365.663 49.0052 366.343C48.8898 365.202 48.7568 364.069 48.6138 362.941C48.9807 361.886 49.3409 360.901 49.5842 360.089C50.8313 355.927 52.3162 351.836 54.3384 347.848C56.2095 344.16 58.3559 340.518 60.6947 336.988C61.7856 335.342 62.8916 333.702 63.9906 332.059C64.71 330.984 65.3949 329.262 66.3965 328.232C59.9225 334.151 52.8494 340.112 48.7421 347.215Z" fill="#F2F2F2"/>
<path fill-rule="evenodd" clip-rule="evenodd" d="M441.11 77.0305C439.254 70.84 434.896 65.9949 430.373 61.5555C421.568 52.913 416.832 47.5694 413.693 34.9271C411.848 27.4918 409.969 19.6127 404.115 14.2184C399.853 10.2901 392.517 6.9896 386.817 9.80257C378.048 15.0367 375.693 25.7781 376.577 35.3964C377.673 47.3176 383.242 54.6682 393.939 59.0591C399.967 61.532 403.974 64.795 407.246 70.4808C409.863 75.0273 411.389 80.7205 414.679 84.842C419.596 91.0032 425.749 93.7421 433.334 92.7187C426.23 79.6479 417.929 66.4543 407.918 55.4492C406.981 54.3428 401.453 50.1081 402.568 48.2225C403.796 46.1463 409.471 53.9453 409.431 53.8981C412.34 57.2378 415.032 60.7867 417.676 64.3696C417.669 64.3731 417.661 64.375 417.654 64.3787C420.376 68.0553 423.076 71.786 425.725 75.5636C426.796 77.1614 427.839 78.7797 428.837 80.4386C430.301 82.8728 432.626 89.7815 435.023 91.2783C435.536 91.5983 436.01 91.7772 436.453 91.851C438.088 94.5286 439.68 97.2278 441.193 99.9588C445.145 107.092 448.537 114.623 450.094 122.676C450.549 125.026 450.227 133.818 451.831 135.515C454.765 138.618 453.905 132.642 453.73 130.838C452.273 115.9 446.91 103.173 439.124 90.6144C441.516 87.4903 441.861 79.5387 441.11 77.0305Z" fill="#F2F2F2"/>
<path fill-rule="evenodd" clip-rule="evenodd" d="M340.642 84.2483C343.734 80.6046 351.168 79.9864 355.715 80.2303C361.341 80.532 367.119 81.9016 372.472 83.5576C381.289 86.2852 389.857 91.2629 397.622 96.0807C398.558 96.6613 410.087 103.595 409.066 104.811C408.055 106.017 396.737 97.7811 394.215 96.3616C388.832 93.3318 383.896 89.7486 377.963 87.7477C371.819 85.6756 365.322 84.8551 358.862 84.9117C358.033 84.9191 355.329 84.341 355.27 85.5676C355.213 86.7673 359.688 86.1414 360.477 86.1485C363.736 86.1785 367.016 86.4852 370.228 87.05C376.248 88.1081 381.907 90.2397 387.063 93.5092C385.624 96.854 382.176 98.3963 378.558 97.5593C375.432 96.8355 372.384 95.051 369.322 94.535C367.213 94.1797 365.102 94.3911 363.058 94.9851C357.664 96.5526 354.554 99.7636 348.624 97.53C343.975 95.779 336.201 89.4883 340.642 84.2483Z" fill="#F2F2F2"/>
<path fill-rule="evenodd" clip-rule="evenodd" d="M327.343 25.5372C320.476 25.0364 312.808 30.5166 309.496 36.2195C306.826 40.8176 307.276 46.8555 308.925 51.7405C310.029 55.0109 312.44 59.6739 316.459 59.7193C321.488 59.7762 321.731 53.6274 321.828 50.0328C321.957 45.2539 322.567 41.0909 326.374 37.8335C326.844 37.4315 327.337 37.0551 327.83 36.6787C328.268 36.3446 328.706 36.0106 329.127 35.6587C329.194 35.6024 329.262 35.5461 329.33 35.4897C330.676 34.3705 332.089 33.1951 332.262 31.3504C332.511 28.677 330.986 28.1959 328.657 28.6926C328.581 28.7086 328.377 28.7851 328.1 28.8892C326.91 29.3352 324.372 30.2869 324.852 29.1492C325.033 28.7205 325.693 28.3809 326.527 28.1263C328.683 27.8944 331.255 27.6252 331.995 27.786C339.975 29.5178 343.081 40.4525 343.906 47.3998C344 48.1865 344.075 48.9758 344.139 49.7664H345.602C345.5 47.9097 345.366 46.0561 345.053 44.2202C343.877 37.3387 340.199 27.2315 332.135 26.1145C331.837 26.0729 330.743 26.0659 329.417 26.1428C328.788 25.7955 328.085 25.5855 327.343 25.5372Z" fill="#F2F2F2"/>
<path fill-rule="evenodd" clip-rule="evenodd" d="M311.238 263.184C314.612 265.217 317.926 266.199 319.482 265.798C323.384 264.793 323.743 250.525 320.724 244.9C317.705 239.275 302.185 236.824 301.403 247.968C301.131 251.836 302.756 255.288 305.157 258.105L300.852 278.159H313.356L311.238 263.184Z" fill="#57331F"/>
<path fill-rule="evenodd" clip-rule="evenodd" d="M311.863 249.199C312.945 247.589 313.983 246.361 315.334 245.648C320.83 245.735 321.474 244.75 321.474 241.43C320.586 240.795 317.454 239.726 313.945 239.425C312.156 238.913 310.036 239.01 307.993 239.863C305.472 240.578 303.338 242.118 302.395 245.001C298.983 250.886 301.572 257.012 305.062 259.105C305.991 258.005 306.801 256.939 307.525 255.918C306.944 255.351 306.583 254.559 306.583 253.683C306.583 251.958 307.982 250.559 309.709 250.559C309.836 250.559 309.961 250.566 310.084 250.581C310.162 252.738 310.481 260.038 311.321 262.573C312.311 265.563 318.088 266.296 320.103 266.296C321.843 266.296 321.784 264.649 321.741 263.469C321.735 263.299 321.729 263.138 321.729 262.994C321.729 262.692 321.337 262.693 320.894 262.694C320.318 262.695 319.656 262.696 319.656 262.036C319.656 261.316 320.651 260.764 321.542 260.27C322.097 259.962 322.612 259.676 322.819 259.387C323.472 258.473 323.692 257.241 322.707 257.241C322.168 257.241 321.429 257.551 320.54 257.924C319.198 258.488 317.514 259.195 315.661 259.195C312.6 259.195 311.872 249.322 311.863 249.199Z" fill="#191847"/>
<path fill-rule="evenodd" clip-rule="evenodd" d="M299.81 321.382L325.381 386.074L342.531 440.766H349.303L323.084 321.382L299.81 321.382Z" fill="#3D2216"/>
<path fill-rule="evenodd" clip-rule="evenodd" d="M294.661 321.382C294.389 344.115 290.418 374.722 289.784 376.139C289.149 377.556 245.981 412.18 245.981 412.18L250.646 417.169C250.646 417.169 301.58 387.484 303.937 383.524C306.294 379.565 313.967 343.13 320.128 321.382H294.661Z" fill="#57331F"/>
<path fill-rule="evenodd" clip-rule="evenodd" d="M246.719 411.203C246.556 410.64 245.965 410.306 245.414 410.506C244.368 410.886 242.807 411.513 242.12 412.089C241.041 412.994 239.271 415.091 239.271 415.091C240.322 416.343 258.159 437.591 258.159 437.591C258.159 437.591 261.796 436.035 260.441 433.952C259.086 431.868 258.223 430.462 258.223 430.462L254.103 416.071C254.025 415.801 253.739 415.647 253.471 415.732L251.254 416.435C251.254 416.435 248.97 415.371 248.051 414.277C247.484 413.601 247.004 412.186 246.719 411.203Z" fill="#E4E4E4"/>
<path fill-rule="evenodd" clip-rule="evenodd" d="M341.16 437.64C340.624 437.404 339.988 437.642 339.787 438.192C339.407 439.237 338.883 440.836 338.883 441.732C338.883 443.141 339.353 445.843 339.353 445.843C340.988 445.843 368.737 445.843 368.737 445.843C368.737 445.843 369.882 442.058 367.414 441.756C364.947 441.454 363.314 441.211 363.314 441.211L349.637 435.116C349.38 435.002 349.079 435.122 348.971 435.382L348.085 437.531C348.085 437.531 345.801 438.596 344.373 438.596C343.49 438.596 342.096 438.055 341.16 437.64Z" fill="#E4E4E4"/>
<path fill-rule="evenodd" clip-rule="evenodd" d="M317.002 435.132L349.201 431.639L325.338 321.382H296.499L317.002 435.132Z" fill="#7F5029"/>
<path fill-rule="evenodd" clip-rule="evenodd" d="M252.641 404.13L273.762 429.119C273.762 429.119 307.13 392.69 312.669 381.579C318.209 370.468 322.628 321.382 322.628 321.382H290.161C290.161 321.382 287.747 364.566 286.906 366.576C286.066 368.585 252.641 404.13 252.641 404.13Z" fill="#A37448"/>
<path fill-rule="evenodd" clip-rule="evenodd" d="M264.071 344.768C265.597 341.672 273.225 301.827 273.225 301.827L284.633 301.87C284.633 301.87 271.6 344.078 270.796 346.069C269.752 348.655 271.526 352.412 272.728 354.96C272.914 355.354 273.087 355.72 273.233 356.047C271.564 356.793 270.763 355.891 269.918 354.94C268.963 353.866 267.953 352.73 265.576 353.835C264.658 354.262 263.789 354.767 262.939 355.261C260.006 356.965 257.312 358.53 253.646 356.27C253.065 355.911 252.429 354.562 253.967 353.507C257.8 350.88 263.324 346.282 264.071 344.768ZM360.15 329.243L345.392 314.852L340.49 323.33L355.837 332.374C359.685 338.433 361.945 341.051 362.617 340.228C363.183 339.534 362.923 338.773 362.684 338.072C362.498 337.527 362.324 337.017 362.563 336.604C363.108 335.661 366.189 336.201 369.091 336.839C371.993 337.476 371.322 336.051 370.705 335.308C367.962 333.095 364.444 331.074 360.15 329.243Z" fill="#57331F"/>
<path fill-rule="evenodd" clip-rule="evenodd" d="M307.987 269.479L312.492 268.706C319.588 293.782 356.051 310.874 358.289 320.248C359.11 323.686 356.635 325.424 357.913 326.471L352.058 330.755C351.066 329.599 348.95 331.714 344.531 330.235C340.112 328.755 307.987 299.17 307.987 269.479Z" fill="#191847"/>
<path fill-rule="evenodd" clip-rule="evenodd" d="M299.891 264.238C298.789 264.161 297.833 264.992 297.756 266.093L297.537 269.227C289.059 275.748 268.046 295.236 262.571 331.514C261.996 335.325 263.036 337.366 263.867 338.997C264.435 340.113 264.906 341.036 264.695 342.203L272.358 344.318C272.358 343.456 273.324 342.801 274.57 341.955C276.382 340.726 278.786 339.094 279.675 335.842C280.518 332.759 281.752 328.909 283.226 324.626C283.365 330.298 284.442 335.515 286.786 339.836C292.635 350.616 326.437 338.794 329.968 327.797C331.852 321.928 329.179 317.001 325.642 310.485C321.153 302.214 315.274 291.382 315.565 272.813L315.946 267.365C316.023 266.263 315.192 265.307 314.09 265.23L299.891 264.238Z" fill="#2F3676"/>
<path fill-rule="evenodd" clip-rule="evenodd" d="M163.778 274.899C166.264 276.399 168.706 277.123 169.852 276.827C172.727 276.086 172.991 265.563 170.767 261.414C168.543 257.266 157.109 255.458 156.533 263.677C156.333 266.53 157.53 269.076 159.298 271.153L156.127 285.944H165.338L163.778 274.899Z" fill="#B28B67"/>
<path fill-rule="evenodd" clip-rule="evenodd" d="M167.128 256.896C165.87 256.512 164.043 256.382 163.274 256.47C163.711 255.422 163.885 254.254 163.743 253.117C163.606 252.012 163.112 251.071 162.656 250.085C162.446 249.63 162.207 249.178 161.852 248.831C161.49 248.477 161.031 248.243 160.551 248.131C160.059 248.017 159.545 248.027 159.052 248.13C158.834 248.176 158.639 248.276 158.425 248.331C158.206 248.388 158.1 248.251 157.941 248.113C157.559 247.781 156.997 247.617 156.513 247.559C155.97 247.493 155.406 247.575 154.888 247.754C154.384 247.928 153.899 248.21 153.534 248.622C153.372 248.805 153.225 249.014 153.129 249.244C153.09 249.339 153.083 249.394 152.989 249.429C152.902 249.461 152.8 249.462 152.71 249.493C151.84 249.787 151.097 250.46 150.692 251.323C150.456 251.827 150.344 252.714 150.374 253.707C150.405 254.701 151.302 257.295 152.141 258.241C152.889 259.085 153.99 259.642 155.052 259.886C154.347 260.693 153.878 261.7 153.531 262.725C153.154 263.838 152.921 264.995 152.834 266.174C152.753 267.293 152.745 268.477 153.007 269.573C153.253 270.598 153.778 271.439 154.654 271.972C155.055 272.216 155.487 272.4 155.921 272.568C156.349 272.733 156.778 272.894 157.226 272.986C158.075 273.162 159.053 273.132 159.706 272.456C159.942 272.212 160.201 271.906 160.373 271.609C160.434 271.502 160.472 271.431 160.397 271.327C160.307 271.202 160.161 271.106 160.046 271.008C159.387 270.449 158.979 269.703 158.876 268.816C158.772 267.916 159.013 266.755 159.887 266.363C160.966 265.878 162.154 266.434 163.113 266.953C163.521 265.513 164.358 264.217 165.67 263.557C167.121 262.827 168.787 262.741 170.278 262.114C170.667 261.951 171.063 261.766 171.349 261.433C171.469 261.294 171.609 261.113 171.657 260.929C171.72 260.688 171.564 260.485 171.444 260.297C170.806 259.298 168.387 257.28 167.128 256.896Z" fill="#191847"/>
<path fill-rule="evenodd" clip-rule="evenodd" d="M155.36 385.035C171.681 385.035 184.913 372.396 184.913 356.806C184.913 341.215 171.681 328.576 155.36 328.576C139.038 328.576 125.806 341.215 125.806 356.806C125.806 372.396 139.038 385.035 155.36 385.035Z" fill="#C5CFD6"/>
<path fill-rule="evenodd" clip-rule="evenodd" d="M201.305 355.3C202.733 360.304 206.289 369.788 211.207 380.68L215.88 379.315C211.792 354.253 208.389 337.66 206.44 332.61C205.153 329.273 195.411 329.664 196.532 336.378C197.002 339.193 198.861 346.732 201.305 355.3ZM182.098 337.549C174.478 339.129 158.677 344.714 154.165 346.498C151.33 347.62 153.158 351.424 155.577 351.091C155.986 351.035 157.436 350.873 159.598 350.63C166.544 349.853 180.849 348.251 191.698 346.689C197.41 345.866 194.337 335.158 188.406 336.292C186.41 336.673 184.288 337.095 182.098 337.549Z" fill="#B28B67"/>
<path fill-rule="evenodd" clip-rule="evenodd" d="M206.739 329.781C205.96 327.237 170.544 318.206 170.544 318.206H167.641V320.913L192.046 333.345C192.014 333.746 192.034 334.17 192.113 334.617C191.936 343.834 195.878 350.719 199.781 357.536C202.333 361.994 204.868 366.423 206.224 371.455L215.191 370.116C214.93 369.448 214.517 366.434 213.952 362.313C212.528 351.922 210.14 334.494 206.789 329.883C206.778 329.867 206.766 329.851 206.754 329.835C206.749 329.817 206.745 329.799 206.739 329.781Z" fill="#1F28CF"/>
<path fill-rule="evenodd" clip-rule="evenodd" d="M169.669 340.728C167.436 340.281 165.38 339.882 163.62 339.573C152.254 337.578 148.94 331.49 150.9 318.206H171.841C175.262 319.189 193.039 326.65 202.263 330.618C208.368 333.244 206.443 342.712 202.986 345.176C202.968 345.327 202.905 345.429 202.795 345.475C189.687 350.912 178.51 350.506 171.332 350.246C168.326 350.137 166.022 350.053 164.571 350.435L162.298 343.259L169.669 340.728Z" fill="#2B44FF"/>
<path fill-rule="evenodd" clip-rule="evenodd" d="M156.58 346.514C156.538 345.857 155.984 345.329 155.331 345.409C154.557 345.505 153.611 345.664 153.113 345.907C152.18 346.363 150.541 347.547 150.541 347.547C151.069 348.631 160.031 367.018 160.031 367.018C160.031 367.018 162.908 366.553 162.311 364.82C161.714 363.087 161.348 361.927 161.348 361.927L160.975 351.093C160.964 350.777 160.694 350.532 160.378 350.551L158.868 350.646C158.868 350.646 157.424 349.477 156.963 348.531C156.728 348.048 156.624 347.215 156.58 346.514Z" fill="#E4E4E4"/>
<path fill-rule="evenodd" clip-rule="evenodd" d="M210.391 378.384C209.782 378.133 209.064 378.4 208.85 379.023C208.596 379.76 208.325 380.68 208.325 381.235C208.325 382.274 208.671 384.267 208.671 384.267C209.875 384.267 230.318 384.267 230.318 384.267C230.318 384.267 231.162 381.475 229.344 381.253C227.526 381.03 226.323 380.851 226.323 380.851L216.43 376.437C216.14 376.308 215.801 376.444 215.681 376.737L215.104 378.137C215.104 378.137 213.421 378.922 212.369 378.922C211.832 378.922 211.039 378.65 210.391 378.384Z" fill="#E4E4E4"/>
<path fill-rule="evenodd" clip-rule="evenodd" d="M200.142 321.907L187.899 312.91L185.193 319.605L197.316 324.636C200.745 328.666 202.662 330.347 203.068 329.676C203.41 329.111 203.143 328.583 202.896 328.095C202.704 327.716 202.525 327.362 202.657 327.036C202.958 326.291 205.261 326.369 207.444 326.537C209.626 326.705 208.99 325.733 208.464 325.253C206.236 323.919 203.462 322.803 200.142 321.907ZM135.938 337.759C137.063 335.475 140.893 313.221 140.893 313.221L148.914 313.252C148.914 313.252 141.485 337.25 140.893 338.718C140.124 340.625 141.43 343.397 142.316 345.276C142.453 345.566 142.58 345.836 142.688 346.077C141.459 346.628 140.868 345.962 140.246 345.261C139.543 344.469 138.799 343.631 137.047 344.446C136.371 344.761 135.73 345.133 135.105 345.497C132.944 346.754 130.959 347.909 128.259 346.241C127.831 345.977 127.361 344.982 128.495 344.204C131.319 342.266 135.388 338.875 135.938 337.759Z" fill="#B28B67"/>
<path fill-rule="evenodd" clip-rule="evenodd" d="M163.686 279.542L167.005 278.972C179.319 289.617 184.376 310.067 199.47 320.9L195.837 325.407C169.652 322.162 163.162 297.218 163.686 279.542Z" fill="#E87613"/>
<path fill-rule="evenodd" clip-rule="evenodd" d="M149.219 321.279C149.219 321.279 169.179 321.279 178.584 321.279C179.926 321.279 179.673 319.34 179.479 318.361C177.24 307.069 168.501 294.897 168.501 278.823L160.031 277.494C153.025 288.77 150.602 302.653 149.219 321.279Z" fill="#DDE3E9"/>
<path fill-rule="evenodd" clip-rule="evenodd" d="M145.917 329.344C144.597 332.516 143.303 335.284 142.083 337.41H135.785C135.108 315.486 143.402 298.617 150.344 288.445C148.802 288.335 147.411 287.69 146.532 286.102C143.436 280.511 144.554 277.434 147.863 276.422C149.682 275.866 151.393 276.245 153.441 276.7C155.117 277.072 157.019 277.494 159.391 277.494C159.392 277.494 159.393 277.494 159.393 277.494C159.623 277.494 159.832 277.51 160.022 277.539L162.833 277.7C162.833 277.7 174.245 316.403 169.127 329.344H145.917Z" fill="#FF9B21"/>
<path fill-rule="evenodd" clip-rule="evenodd" d="M145.917 329.344C147.648 325.182 149.424 320.325 151.133 315.308C151.769 320.833 152.828 326.382 154.592 329.344H145.917Z" fill="black" fill-opacity="0.1"/>
</svg>
