<svg width="180" height="431" viewBox="0 0 180 431" fill="none" xmlns="http://www.w3.org/2000/svg">
<g opacity="0.3">
<path fill-rule="evenodd" clip-rule="evenodd" d="M-68.0048 124.135C-53.3168 123.373 -35.1519 131.947 -33.5849 147.912C-32.4466 159.513 -32.7991 171.08 -31.0375 182.663C-29.6288 191.921 -26.6496 200.807 -22.5864 209.24C-18.6794 217.349 -10.5747 224.251 -8.46671 232.914C-7.12323 238.433 -7.87526 246.198 -9.72803 251.597C-11.9813 258.162 -10.7837 257.643 -6.29404 263.151C2.50364 273.945 10.4255 285.014 16.0275 297.906C24.0968 316.476 29.3872 338.181 26.3923 358.507C26.0113 361.088 25.5596 370.351 22.0053 370.999C18.0356 371.723 19.8918 366.425 20.1037 364.714C21.4543 353.795 22.6544 344.25 21.0252 333.161C14.7385 290.374 -15.9564 262.183 -35.943 225.869C-37.0417 223.996 -39.3612 219.537 -40.974 216.595C-43.5201 211.95 -46.0798 203.112 -49.5267 199.668C-56.0182 193.18 -50.0502 206.223 -48.7853 208.714C-47.186 211.863 -45.4266 215.211 -43.7877 217.971C-36.289 230.765 -27.919 244.73 -20.1744 257.918C-53.6691 265.549 -77.2582 225.282 -86.2467 198.808C-93.6525 176.997 -102.513 126.002 -68.0048 124.135Z" fill="#69A1AC"/>
<path fill-rule="evenodd" clip-rule="evenodd" d="M128.858 83.631C104.304 85.5792 88.5411 101.781 81.2034 124.443C77.2486 136.655 76.7953 149.201 74.5976 161.751C71.2916 180.633 64.1782 194.942 50.2763 208.394C45.9705 212.561 42.7975 216.838 40.5418 221.415C36.0641 225.984 32.1663 231.155 29.3027 237.476C25.6447 245.55 24.6096 255.236 28.8331 263.285C29.9686 265.449 32.8015 269.793 35.7375 271.766C24.7454 295.177 18.7015 320.816 19.3827 346.423C19.7944 361.88 20.549 377.344 21.4294 392.783C21.6664 396.928 23.0163 403.773 25.0439 396.821C26.8996 390.462 24.5725 380.48 24.3572 373.836C23.3095 341.474 22.4137 312.049 35.7357 281.813C37.1327 278.644 38.6138 275.5 40.1564 272.382C40.2469 272.329 40.331 272.266 40.4161 272.204C40.4749 272.25 40.5283 272.299 40.5871 272.343C40.6857 272.167 40.8205 271.958 40.978 271.724C41.4204 271.268 41.8067 270.691 42.1741 270.047C43.3557 268.41 44.693 266.486 44.7002 265.433C44.7002 265.424 44.6957 265.412 44.6957 265.404C52.9427 251.941 62.3886 239.221 72.0371 226.749C71.9647 226.84 82.5027 212.492 80.8732 220.427C80.0878 224.25 72.3366 231.532 69.2061 235.583C62.2809 244.593 54.1488 256.011 47.391 267.051C46.4817 267.574 45.1969 270.139 44.2677 272.05C43.7547 273.019 43.2761 273.995 42.8056 274.845C66.7505 282.757 85.3771 266.821 98.0784 248.286C98.0938 248.264 98.1073 248.241 98.1218 248.22C101.987 243.098 105.946 238.013 110.893 233.964C119.145 227.208 127.983 226.017 137.713 222.692C164.247 213.626 175.529 179.237 179.112 153.721C183.155 124.934 163.381 80.7925 128.858 83.631Z" fill="#89C5CC"/>
<path fill-rule="evenodd" clip-rule="evenodd" d="M80.3557 3.01693C55.1552 29.2449 42.9803 65.6236 33.3399 99.8231C22.5728 138.021 15.461 176.807 15.188 216.521C15.0091 242.613 14.2992 268.868 15.8222 294.93C16.3625 304.186 17.2852 313.458 18.7522 322.614C18.873 323.366 22.1553 343.811 25.2958 339.047C27.082 336.338 21.9314 317.839 21.5421 314.758C19.3529 297.404 18.8441 279.921 18.9509 262.442C19.1264 233.662 18.2779 205.03 21.1948 176.357C21.6297 172.076 21.9738 167.579 22.9907 163.391C24.0703 158.938 22.6953 160.882 26.2122 159.119C29.6295 157.406 33.8523 157.65 37.3979 155.501C51.4621 146.972 58.6566 125.066 64.256 110.693C70.6606 94.2566 74.553 76.7294 77.662 59.4322C79.9447 46.7236 81.5769 34.0922 82.5006 21.2199C82.7916 17.163 82.8089 12.9206 83.6062 8.93151C83.8209 7.85549 84.8987 5.952 84.8596 4.99908C84.7768 2.98233 83.5594 1.79623 83.4598 0.101596C82.4049 1.05096 81.3692 2.02343 80.3557 3.01693Z" fill="#89C5CC"/>
<path fill-rule="evenodd" clip-rule="evenodd" d="M-57.0546 352.463C-57.0546 395.838 -21.8924 431 21.4824 431C64.8572 431 100.019 395.838 100.019 352.463" fill="#89C5CC"/>
<path fill-rule="evenodd" clip-rule="evenodd" d="M75.3045 283.7C94.7419 282.267 116.449 297.948 125.825 314.267C133.383 327.424 132.11 344.701 127.441 358.679C124.315 368.037 117.492 381.38 106.114 381.51C91.8784 381.672 91.1919 364.078 90.9166 353.792C90.5507 340.118 88.8228 328.206 78.0477 318.885C76.7173 317.734 75.3213 316.657 73.9255 315.58C72.6865 314.624 71.4476 313.669 70.2548 312.662C70.0641 312.501 69.8725 312.34 69.6804 312.178C65.8702 308.976 61.8686 305.612 61.3815 300.334C60.6751 292.684 64.9931 291.307 71.586 292.729C71.7987 292.774 72.3765 292.993 73.1624 293.291C76.5292 294.567 83.7139 297.291 82.3548 294.035C81.8431 292.809 79.9739 291.837 77.6148 291.108C71.51 290.445 64.2296 289.674 62.1358 290.135C39.5477 295.09 30.7532 326.379 28.4176 346.258C28.1656 348.404 27.9617 350.557 27.784 352.713H23.6341C23.922 347.506 24.3024 342.309 25.1728 337.16C28.5018 317.469 38.9111 288.548 61.741 285.352C62.5832 285.233 65.6814 285.213 69.4343 285.433C71.2129 284.439 73.2053 283.838 75.3045 283.7Z" fill="#69A1AC"/>
</g>
</svg>
