<svg width="321" height="297" viewBox="0 0 321 297" fill="none" xmlns="http://www.w3.org/2000/svg">
<path fill-rule="evenodd" clip-rule="evenodd" d="M79.7646 94.1857C83.806 95.8982 87.62 96.464 89.277 95.7813C93.4321 94.0695 91.6223 78.3165 87.4173 72.5968C83.2123 66.8772 65.6871 66.5897 66.5461 78.9723C66.8442 83.2699 69.1729 86.8153 72.2606 89.5414L70.606 112.274L84.4195 110.332L79.7646 94.1857Z" fill="#B28B67"/>
<path fill-rule="evenodd" clip-rule="evenodd" d="M83.731 68.9536C83.3882 68.8101 82.6705 68.5066 82.3149 68.41C82.2307 68.3866 81.6196 68.0701 81.6053 68.0772C81.2045 68.2776 80.0595 68.9704 80.0183 69.4359C80.0069 69.4723 79.9955 69.5066 79.9839 69.5368C79.8552 69.8734 79.7418 70.2158 79.6363 70.5611C79.4047 71.319 79.2229 72.1027 79.0532 72.8787C78.7227 74.39 78.4667 75.9249 78.2485 77.458C78.0263 79.0186 77.872 80.5875 77.6723 82.1513C77.3849 84.4015 76.9244 86.6219 76.6409 88.8706C76.4599 90.3065 76.4478 91.7352 76.7464 93.1449C76.7498 93.1619 76.7527 93.1787 76.7567 93.1958C76.7583 93.2029 76.7602 93.2098 76.7619 93.2168C76.8094 93.4333 76.8641 93.6493 76.9269 93.8649C76.9812 94.0491 77.0357 94.234 77.092 94.4186C77.4792 93.2772 77.7241 92.0451 78.0025 90.8692C78.0297 90.7541 78.0549 90.6385 78.079 90.5226C78.1876 90.2768 78.299 90.0323 78.4123 89.7884C79.1262 88.2502 79.8445 86.7167 80.5174 85.1582C81.7277 82.3553 82.9157 79.4998 84.4476 76.8668C84.8999 76.0892 85.3666 75.3207 85.8112 74.5384C86.0642 74.0932 86.3082 73.6425 86.5415 73.1858C86.7082 72.8593 87.469 71.6959 87.0533 71.1196C86.8406 70.8247 84.6203 69.3259 83.731 68.9536Z" fill="#2C2C2C"/>
<path fill-rule="evenodd" clip-rule="evenodd" d="M82.4221 68.4479C82.7443 68.5076 82.505 67.8913 82.1754 67.7089C80.6487 66.8638 75.3171 67.2286 70.857 68.8234C67.8691 69.8918 64.5126 71.9775 62.3407 74.3576C60.3827 76.5032 59.2722 79.6578 58.8869 82.609C58.4824 85.7078 58.7947 88.8353 59.6836 91.8297C59.8788 92.4875 60.1854 93.0973 60.3986 93.738C60.6386 94.4596 60.8085 95.1628 61.1521 95.8493C61.3625 96.2696 61.6755 96.6666 61.8644 97.0925C62.0801 97.5784 62.0578 98.0591 62.0248 98.5889C61.971 99.4522 61.8757 100.32 61.6857 101.164C61.4004 102.431 61.0073 103.636 60.837 104.934C60.6105 106.66 59.4459 112.339 61.0596 113.615L87.834 109.852C86.9025 108.116 84.576 106.246 83.8908 104.344C83.4873 103.224 83.0182 100.719 82.9801 100.631C81.7948 96.5751 80.3388 94.7636 79.5001 94.1497C78.6614 93.5359 77.6476 93.4534 77.5095 92.8381C76.9385 90.2933 77.6201 87.6823 78.0365 85.1739C78.5328 82.1843 78.779 79.1574 79.3044 76.1736C79.5371 74.8523 80.7493 68.138 82.4221 68.4479Z" fill="#8991DC"/>
<path fill-rule="evenodd" clip-rule="evenodd" d="M73.741 82.119C72.9115 77.7923 72.8894 76.0595 73.4509 72.7287L72.8283 72.8162C72.022 74.2201 71.7426 78.2067 73.2457 82.1886L73.741 82.119ZM61.5114 83.6284C61.3656 83.3791 61.2163 83.1239 61.0622 82.8622L60.6931 83.1072C62.5809 87.4784 64.5931 90.7749 70.2224 92.9844L70.5884 92.6446C65.1703 89.8851 63.7504 87.4572 61.5114 83.6284ZM68.1429 77.151C68.2505 77.538 68.3545 77.915 68.456 78.2832C70.0153 83.9381 71.0041 87.5241 76.1148 93.5613L75.6614 93.7721C70.2163 88.2723 68.7853 83.36 67.7057 77.2486L68.1429 77.151ZM66.2545 96.4561L65.9182 97.0034C68.0075 97.141 69.5964 98.4331 71.418 99.9144C73.3454 101.482 75.5331 103.261 78.8493 104.108L79.382 103.675C75.7111 102.385 73.8718 100.848 72.2658 99.5068C70.6031 98.1179 69.1905 96.9378 66.2545 96.4561Z" fill="black" fill-opacity="0.2"/>
<path fill-rule="evenodd" clip-rule="evenodd" d="M143.1 201.041C142.019 212.81 143.1 238.106 143.682 245.404C144.047 249.99 150.326 248.789 150.912 245.119C151.012 244.497 151.416 242.312 152.02 239.053C154.98 223.07 162.728 181.239 162.741 171.068C162.748 166.404 152.316 162.674 148.143 168.308C144.712 165.909 139.842 165.266 136.84 170.111C134.567 173.779 129.166 184.192 123.406 196.351C118.361 207.004 110.476 232.862 110.476 232.862L117.17 235.907C117.17 235.907 133.704 209.444 144.115 190.89C143.769 194.083 143.426 197.501 143.1 201.041Z" fill="#B28B67"/>
<path fill-rule="evenodd" clip-rule="evenodd" d="M110.955 223.289L133.929 169.113C139.432 160.3 154.864 170.906 152.987 176.018C148.725 187.622 127.054 225.192 125.785 228.649L110.955 223.289Z" fill="#1F28CF"/>
<path fill-rule="evenodd" clip-rule="evenodd" d="M163.322 175.297C163.322 190.653 156.561 226.749 156.556 230.131L140.176 229.581C140.176 229.581 144.471 182.506 143.798 182.187C142.79 181.709 102.447 187.745 90.3474 188.201C72.8999 188.858 65.6822 178.203 65.0965 157.983L98.893 157.983C98.893 157.983 142.242 163.134 155.874 165.148C161.71 166.01 163.322 171.067 163.322 175.297Z" fill="#2B44FF"/>
<path fill-rule="evenodd" clip-rule="evenodd" d="M112.018 231.463C111.066 230.788 109.716 230.935 109.087 231.922C108.492 232.856 107.866 233.954 107.681 234.692C107.301 236.211 107.079 239.25 107.079 239.25C108.849 239.689 138.887 247.145 138.887 247.145C138.887 247.145 141.149 243.372 138.559 242.384C135.97 241.395 134.268 240.695 134.268 240.695L121.465 230.728C121.022 230.382 120.381 230.471 120.046 230.923L118.777 232.636C118.777 232.636 116.016 233.171 114.47 232.787C113.759 232.61 112.822 232.034 112.018 231.463Z" fill="#E4E4E4"/>
<path fill-rule="evenodd" clip-rule="evenodd" d="M145.24 236.457C144.152 236.031 142.879 236.499 142.509 237.607C142.158 238.657 141.817 239.874 141.817 240.635C141.817 242.2 142.341 245.202 142.341 245.202C144.165 245.202 175.123 245.202 175.123 245.202C175.123 245.202 176.401 240.997 173.648 240.662C170.895 240.326 169.074 240.056 169.074 240.056L154.228 233.468C153.714 233.24 153.114 233.48 152.899 233.999L152.084 235.967C152.084 235.967 149.535 237.151 147.942 237.151C147.208 237.151 146.159 236.817 145.24 236.457Z" fill="#E4E4E4"/>
<rect x="142.399" y="245.202" width="30.8046" height="4.04997" rx="2.02499" fill="#2F3676"/>
<path d="M57.5407 171.31C57.5407 165.787 62.0178 161.31 67.5407 161.31H121.355C126.878 161.31 131.355 165.787 131.355 171.31V195.445H61.5407C59.3315 195.445 57.5407 193.654 57.5407 191.445V171.31Z" fill="#2F3676"/>
<path fill-rule="evenodd" clip-rule="evenodd" d="M125.543 161.31C129.126 161.31 132.182 163.903 132.765 167.438L145.305 243.466H139.094" fill="#2F3676"/>
<path fill-rule="evenodd" clip-rule="evenodd" d="M142.399 255.038C148.177 255.038 152.861 250.375 152.861 244.623C152.861 238.872 148.177 234.209 142.399 234.209C136.621 234.209 131.937 238.872 131.937 244.623C131.937 250.375 136.621 255.038 142.399 255.038Z" fill="#191847"/>
<path fill-rule="evenodd" clip-rule="evenodd" d="M109.269 209.909C109.269 234.194 89.4924 253.881 65.0965 253.881C40.7007 253.881 20.9239 234.194 20.9239 209.909C20.9239 185.625 40.7007 165.938 65.0965 165.938C89.4924 165.938 109.269 185.625 109.269 209.909ZM101.132 209.909C101.132 229.72 84.9984 245.781 65.0965 245.781C45.1946 245.781 29.061 229.72 29.061 209.909C29.061 190.098 45.1946 174.038 65.0965 174.038C84.9984 174.038 101.132 190.098 101.132 209.909Z" fill="#191847"/>
<rect x="62.7716" y="171.724" width="4.64975" height="76.3709" fill="#191847"/>
<rect width="4.63916" height="76.5461" rx="2" transform="matrix(0.708721 0.705489 -0.708721 0.705489 90.5775 181.272)" fill="#191847"/>
<rect x="103.457" y="207.595" width="4.62854" height="76.7209" rx="2" transform="rotate(90 103.457 207.595)" fill="#191847"/>
<rect width="4.63916" height="76.5461" rx="2" transform="matrix(-0.708721 0.705489 -0.708721 -0.705489 93.8654 235.274)" fill="#191847"/>
<path fill-rule="evenodd" clip-rule="evenodd" d="M141.294 124.499L119.003 130.778L124.504 140.34L141.921 130.472C149.979 130.135 153.795 129.407 153.371 128.288C153.014 127.344 152.128 127.168 151.311 127.006C150.675 126.88 150.082 126.763 149.814 126.297C149.202 125.233 151.457 122.532 153.706 120.061C155.956 117.59 154.192 117.442 153.122 117.624C149.429 119.051 145.486 121.343 141.294 124.499ZM38.5463 195.602C39.7543 191.959 48.3516 146.047 48.3516 146.047L60.9615 144.323C60.9615 144.323 46.758 193.673 46.1779 195.989C45.4244 198.996 47.9646 202.855 49.687 205.471C49.9535 205.876 50.2004 206.251 50.4125 206.589C48.6846 207.669 47.6596 206.801 46.579 205.886C45.3586 204.852 44.0671 203.758 41.6117 205.344C40.663 205.956 39.7809 206.647 38.9191 207.322C35.9422 209.652 33.2074 211.793 28.8083 209.875C28.1109 209.57 27.1987 208.185 28.7355 206.785C32.5641 203.3 37.9558 197.383 38.5463 195.602Z" fill="#997659"/>
<path fill-rule="evenodd" clip-rule="evenodd" d="M77.2814 101.405L87.2414 100.673C92.7477 122.218 107.928 134.182 136.909 125.337L144.808 152.969C117.607 160.426 91.7611 152.8 82.5812 123.609C80.2049 116.052 78.0554 108.143 77.2814 101.405Z" fill="#AFB9C5"/>
<path fill-rule="evenodd" clip-rule="evenodd" d="M39.4773 189.682C41.2288 152.432 51.7441 122.326 71.0233 99.3635L71.9703 99.2305L72.0025 99.2259L72.0116 99.234L87.442 100.541C89.9545 118.419 95.8275 131.216 101.474 143.519C103.912 148.832 106.308 154.053 108.373 159.551L67.9939 165.226C68.339 171.809 68.9291 178.542 69.712 185.433L39.4773 189.682Z" fill="#C5CFD6"/>
<path fill-rule="evenodd" clip-rule="evenodd" d="M67.9939 165.226C67.2911 151.823 67.6036 139.042 69.3721 126.821C70.3874 139.481 72.3684 155.086 76.2007 164.072L67.9939 165.226Z" fill="black" fill-opacity="0.1"/>
<path fill-rule="evenodd" clip-rule="evenodd" d="M223.313 48.5059C219.853 51.2091 216.315 52.7443 214.538 52.5131C210.081 51.9335 207.749 36.2272 210.33 29.6056C212.91 22.984 229.763 18.1667 232.141 30.3665C232.966 34.6007 231.634 38.6333 229.358 42.07L236.844 63.6297L222.998 65.3297L223.313 48.5059Z" fill="#B28B67"/>
<path fill-rule="evenodd" clip-rule="evenodd" d="M220.724 33.1479C219.309 31.5174 217.992 30.3028 216.4 29.6991C210.325 30.5423 209.479 29.5421 209.029 25.8761C209.926 25.0542 213.25 23.4475 217.094 22.6383C219.006 21.8297 221.366 21.6478 223.744 22.3131C226.632 22.7599 229.205 24.17 230.64 27.2253C235.216 33.2599 233.179 40.3766 229.599 43.1619C228.421 42.0735 227.379 41.0065 226.44 39.978C227.006 39.2725 227.298 38.3491 227.179 37.3817C226.945 35.4762 225.206 34.1218 223.294 34.3565C223.154 34.3737 223.016 34.3991 222.882 34.432C223.089 36.825 223.724 44.9288 223.138 47.8428C222.447 51.2782 216.15 52.8742 213.919 53.1481C211.991 53.3847 211.834 51.5577 211.721 50.2483C211.705 50.0597 211.689 49.8819 211.67 49.7225C211.629 49.3894 212.063 49.337 212.554 49.2776C213.192 49.2006 213.925 49.1121 213.836 48.383C213.738 47.5882 212.561 47.1138 211.508 46.6894C210.851 46.4245 210.242 46.1791 209.974 45.8874C209.127 44.9672 208.716 43.6361 209.807 43.5022C210.404 43.4289 211.264 43.6712 212.299 43.9626C213.861 44.4026 215.822 44.9547 217.874 44.7027C221.264 44.2865 220.731 33.2855 220.724 33.1479Z" fill="#191847"/>
<path fill-rule="evenodd" clip-rule="evenodd" d="M246.604 112.4L225.313 185.531L215.299 240.439H205.248L215.282 112.4H246.604Z" fill="#997659"/>
<path fill-rule="evenodd" clip-rule="evenodd" d="M256.172 112.4C254.687 150.391 255.272 171.113 255.605 174.564C255.937 178.016 257.825 201.133 270.688 241.598H260.234C243.199 202.779 237.253 179.662 235.299 174.564C233.345 169.467 227.575 148.745 219.151 112.4H256.172Z" fill="#B28B67"/>
<path fill-rule="evenodd" clip-rule="evenodd" d="M247.061 112.4C241.523 137.564 231.945 177.734 218.326 232.908H203.625C202.539 176.277 207.158 139.004 215.157 112.4H247.061Z" fill="#69A1AC"/>
<path fill-rule="evenodd" clip-rule="evenodd" d="M256.246 112.4C254.792 150.391 258.562 187.82 270.242 233.499H254.557C237.491 195.259 225.26 158.015 216.9 112.4H256.246Z" fill="#89C5CC"/>
<path fill-rule="evenodd" clip-rule="evenodd" d="M272.178 249.13L271.678 241.108C271.639 240.468 271.015 240.029 270.382 240.132C265.399 240.944 258.911 238.701 258.911 238.701C252.458 243.258 243.375 245.539 239.222 246.397C238.042 246.641 237.283 247.836 237.613 248.995L238.146 250.868H258.911H271.024L272.178 249.13Z" fill="#191847"/>
<path fill-rule="evenodd" clip-rule="evenodd" d="M217.543 249.13L217.044 241.108C217.004 240.468 216.38 240.029 215.747 240.132C210.765 240.944 204.276 238.701 204.276 238.701C197.823 243.258 188.74 245.539 184.587 246.397C183.408 246.641 182.649 247.836 182.978 248.995L183.511 250.868H204.276H216.389L217.543 249.13Z" fill="#191847"/>
<path fill-rule="evenodd" clip-rule="evenodd" d="M180.761 125.172L197.509 109.443L202.807 118.967L185.51 128.737C181.097 135.404 178.524 138.274 177.791 137.345C177.173 136.563 177.477 135.721 177.758 134.946C177.977 134.343 178.181 133.78 177.923 133.315C177.333 132.256 173.886 132.798 170.636 133.452C167.387 134.107 168.164 132.534 168.867 131.719C171.97 129.31 175.935 127.127 180.761 125.172ZM280.177 137.057C278.067 133.846 268.219 101.233 268.219 101.233L256.169 102.76C256.169 102.76 271.746 137.318 272.906 139.408C274.413 142.122 272.959 146.512 271.972 149.489C271.82 149.949 271.679 150.376 271.561 150.758C273.51 151.355 274.275 150.25 275.082 149.085C275.993 147.769 276.957 146.376 279.74 147.274C280.814 147.621 281.845 148.06 282.852 148.49C286.331 149.973 289.527 151.335 293.28 148.34C293.875 147.866 294.397 146.289 292.55 145.333C287.949 142.953 281.209 138.627 280.177 137.057Z" fill="#B28B67"/>
<path fill-rule="evenodd" clip-rule="evenodd" d="M227.768 55.0149L222.675 54.7745C206.123 72.9846 202.28 104.536 181.585 123.541L187.874 129.618C226.635 119.928 231.805 81.3834 227.768 55.0149Z" fill="#E87613"/>
<path fill-rule="evenodd" clip-rule="evenodd" d="M257.186 114.834C257.186 114.834 227.184 118.518 213.048 120.253C211.031 120.501 211.055 117.551 211.166 116.051C212.455 98.7309 223.353 78.8936 220.398 54.8275L232.885 51.2742C245.489 66.8636 251.683 87.2021 257.186 114.834Z" fill="#DDE3E9"/>
<path fill-rule="evenodd" clip-rule="evenodd" d="M263.632 126.3C266.199 130.806 268.653 134.711 270.877 137.669L280.343 136.507C277.331 103.557 261.763 79.8307 249.459 65.8826C251.755 65.4331 253.728 64.21 254.758 61.6703C258.383 52.7291 256.137 48.3272 250.978 47.4231C248.141 46.9259 245.639 47.8102 242.644 48.8688C240.193 49.735 237.412 50.7179 233.847 51.1561C233.846 51.1562 233.845 51.1563 233.844 51.1565C233.498 51.1989 233.187 51.2606 232.907 51.3398L228.712 52.0988C228.712 52.0988 218.674 112.153 228.745 130.584L263.632 126.3Z" fill="#FF9B21"/>
<path fill-rule="evenodd" clip-rule="evenodd" d="M263.632 126.301C260.264 120.389 256.702 113.444 253.211 106.248C253.271 114.637 252.699 123.14 250.593 127.902L263.632 126.301Z" fill="black" fill-opacity="0.1"/>
<path fill-rule="evenodd" clip-rule="evenodd" d="M151.659 101.501C169.062 101.501 183.17 87.3931 183.17 69.9903C183.17 52.5875 169.062 38.4797 151.659 38.4797C134.256 38.4797 120.148 52.5875 120.148 69.9903C120.148 87.3931 134.256 101.501 151.659 101.501Z" fill="#EAE1A6" fill-opacity="0.8"/>
</svg>
