<svg width="45" height="31" viewBox="0 0 45 31" fill="none" xmlns="http://www.w3.org/2000/svg">
<rect width="45" height="31" fill="#F5F5F5"/>
<g id="landing page" clip-path="url(#clip0_28_45)">
<rect width="1440" height="2021" transform="translate(-138 -81)" fill="white"/>
<g id="navbar">
<g id="Frame 5">
<g id="logo">
<mask id="mask0_28_45" style="mask-type:alpha" maskUnits="userSpaceOnUse" x="0" y="0" width="45" height="31">
<path id="W" d="M3.479 5.31866C3.31333 4.73883 3.10625 4.29705 2.85775 3.99333C2.60925 3.662 2.29172 3.44111 1.90517 3.33067C1.54622 3.19261 1.09064 3.12358 0.538417 3.12358H0V0.928497H13.8332V3.12358H12.8806C12.0523 3.12358 11.431 3.28925 11.0168 3.62058C10.6027 3.9243 10.3956 4.4213 10.3956 5.11158C10.3956 5.33247 10.437 5.6638 10.5198 6.10558C10.6027 6.54736 10.6993 6.96153 10.8098 7.34808L13.5847 16.9153C13.8056 17.6056 14.0264 18.3787 14.2473 19.2347C14.4682 20.063 14.6615 20.8913 14.8272 21.7197C15.0204 22.5204 15.1447 23.2245 15.1999 23.8319C15.3932 22.9484 15.6003 22.12 15.8212 21.3469C16.0421 20.5462 16.2768 19.7455 16.5253 18.9447L21.9923 1.21842H25.0157L30.7312 17.0396C31.2006 18.3373 31.6147 19.635 31.9737 20.9327C32.3602 22.2029 32.6225 23.1969 32.7606 23.9147C32.8986 23.2521 33.0505 22.4928 33.2162 21.6368C33.4094 20.7809 33.6027 19.8973 33.796 18.9862C33.9893 18.0474 34.1964 17.1362 34.4173 16.2527L36.6123 7.30667C36.6952 6.97533 36.778 6.57497 36.8608 6.10558C36.9437 5.63619 36.9851 5.29105 36.9851 5.07016C36.9851 4.35228 36.7642 3.85528 36.3224 3.57916C35.9083 3.27544 35.2456 3.12358 34.3344 3.12358H33.3818V0.928497H44.1916V3.12358H43.4047C42.8801 3.12358 42.4245 3.20642 42.0379 3.37208C41.6514 3.51014 41.32 3.81386 41.0439 4.28325C40.7678 4.75264 40.5055 5.44291 40.257 6.35408L33.8374 30.5H29.1159L22.1579 11.0756L16.1939 30.5H11.0583L3.479 5.31866Z" fill="white"/>
</mask>
<g mask="url(#mask0_28_45)">
<path id="Rectangle 7" d="M-0.5 0H10.5H22H33.5H44.5V3.5V7.5V11.5V15.5V19.5V23.5V27.5V31H33.5H22H10.5H-0.5V27.5V23.5V19.5V15.5V11.5V7.5V3.5V0Z" fill="#2C2C2C" stroke="white"/>
</g>
</g>
</g>
</g>
</g>
<defs>
<clipPath id="clip0_28_45">
<rect width="1440" height="2021" fill="white" transform="translate(-138 -81)"/>
</clipPath>
</defs>
</svg>
